# Blender v2.83.0 OBJ File: ''
# www.blender.org
v -0.063770 0.000000 0.000000
v 0.063770 0.000000 0.000000
v 0.000000 0.503427 0.000000
v -0.031885 0.251713 0.000000
v 0.031885 0.251713 0.000000
v -0.047827 0.125857 0.000000
v 0.015942 0.377570 0.000000
v -0.015942 0.377570 0.000000
v 0.047827 0.125857 0.000000
vt 0.621057 0.520384
vt 0.497980 0.979655
vt 0.376628 0.520384
vt 0.744133 0.238847
vt 0.133923 0.098911
vt 0.867209 0.098911
vt 0.012570 0.013663
vt 0.990286 0.013663
vt 0.255275 0.238847
vn 0.0000 0.0000 1.0000
s 1
f 7/1/1 3/2/1 8/3/1
f 5/4/1 6/5/1 9/6/1
f 9/6/1 1/7/1 2/8/1
f 7/1/1 4/9/1 5/4/1
f 5/4/1 4/9/1 6/5/1
f 9/6/1 6/5/1 1/7/1
f 7/1/1 8/3/1 4/9/1
